<mxfile host="app.diagrams.net" agent="Mozilla/5.0 (Windows NT 10.0; Win64; x64) AppleWebKit/537.36 (KHTML, like Gecko) Chrome/130.0.0.0 Safari/537.36" version="24.7.15">
  <diagram name="Landing" id="tG8fl9MbFVu8WaImlx8M">
    <mxGraphModel dx="3609" dy="1697" grid="1" gridSize="10" guides="1" tooltips="1" connect="1" arrows="1" fold="1" page="1" pageScale="1" pageWidth="2550" pageHeight="1440" math="0" shadow="0">
      <root>
        <mxCell id="0" />
        <mxCell id="1" parent="0" />
        <mxCell id="6JTw6NtXRcEhspprxfO7-4" value="" style="group" vertex="1" connectable="0" parent="1">
          <mxGeometry x="315" y="210" width="1920" height="1080" as="geometry" />
        </mxCell>
        <mxCell id="6JTw6NtXRcEhspprxfO7-1" value="" style="rounded=0;whiteSpace=wrap;html=1;" vertex="1" parent="6JTw6NtXRcEhspprxfO7-4">
          <mxGeometry width="1920" height="1080" as="geometry" />
        </mxCell>
        <mxCell id="6JTw6NtXRcEhspprxfO7-2" value="&lt;h1&gt;&lt;br&gt;&lt;/h1&gt;" style="rounded=0;whiteSpace=wrap;html=1;" vertex="1" parent="6JTw6NtXRcEhspprxfO7-4">
          <mxGeometry width="850" height="1080" as="geometry" />
        </mxCell>
        <mxCell id="6JTw6NtXRcEhspprxfO7-5" value="&lt;h1&gt;Unity Logo&lt;/h1&gt;" style="rounded=0;whiteSpace=wrap;html=1;" vertex="1" parent="6JTw6NtXRcEhspprxfO7-4">
          <mxGeometry x="1215" y="45" width="320" height="80" as="geometry" />
        </mxCell>
        <mxCell id="6JTw6NtXRcEhspprxfO7-6" value="&lt;h1&gt;Slide Title&lt;/h1&gt;" style="rounded=0;whiteSpace=wrap;html=1;" vertex="1" parent="6JTw6NtXRcEhspprxfO7-4">
          <mxGeometry x="265" y="190" width="320" height="80" as="geometry" />
        </mxCell>
        <mxCell id="6JTw6NtXRcEhspprxfO7-7" value="&lt;h1&gt;Slide Text&lt;/h1&gt;" style="rounded=0;whiteSpace=wrap;html=1;" vertex="1" parent="6JTw6NtXRcEhspprxfO7-4">
          <mxGeometry x="120" y="370" width="610" height="400" as="geometry" />
        </mxCell>
        <mxCell id="6JTw6NtXRcEhspprxfO7-9" value="&lt;h1&gt;Start Here&lt;/h1&gt;" style="rounded=1;whiteSpace=wrap;html=1;" vertex="1" parent="6JTw6NtXRcEhspprxfO7-4">
          <mxGeometry x="310" y="910" width="230" height="60" as="geometry" />
        </mxCell>
        <mxCell id="6JTw6NtXRcEhspprxfO7-17" value="&lt;h1&gt;Actions menu toggle&lt;/h1&gt;" style="ellipse;whiteSpace=wrap;html=1;" vertex="1" parent="6JTw6NtXRcEhspprxfO7-4">
          <mxGeometry x="30" y="30" width="200" height="110" as="geometry" />
        </mxCell>
        <mxCell id="6JTw6NtXRcEhspprxfO7-18" value="&lt;h1&gt;Have total control of ur insurance&lt;/h1&gt;" style="rounded=1;whiteSpace=wrap;html=1;" vertex="1" parent="6JTw6NtXRcEhspprxfO7-4">
          <mxGeometry x="1190" y="200" width="370" height="80" as="geometry" />
        </mxCell>
        <mxCell id="6JTw6NtXRcEhspprxfO7-21" value="&lt;h1&gt;Sign In / Up Form&lt;/h1&gt;" style="rounded=1;whiteSpace=wrap;html=1;" vertex="1" parent="6JTw6NtXRcEhspprxfO7-4">
          <mxGeometry x="1010" y="360" width="800" height="420" as="geometry" />
        </mxCell>
        <mxCell id="6JTw6NtXRcEhspprxfO7-22" value="&lt;h1&gt;Sign In / Up instead&lt;/h1&gt;" style="rounded=1;whiteSpace=wrap;html=1;" vertex="1" parent="6JTw6NtXRcEhspprxfO7-4">
          <mxGeometry x="1465" y="830" width="300" height="60" as="geometry" />
        </mxCell>
        <mxCell id="6JTw6NtXRcEhspprxfO7-26" value="&lt;h1&gt;|&lt;/h1&gt;" style="text;strokeColor=none;fillColor=none;html=1;fontSize=24;fontStyle=1;verticalAlign=middle;align=center;" vertex="1" parent="6JTw6NtXRcEhspprxfO7-4">
          <mxGeometry x="1400" y="840" width="20" height="40" as="geometry" />
        </mxCell>
        <mxCell id="6JTw6NtXRcEhspprxfO7-29" value="&lt;h1&gt;Need help?&lt;/h1&gt;" style="rounded=1;whiteSpace=wrap;html=1;" vertex="1" parent="6JTw6NtXRcEhspprxfO7-4">
          <mxGeometry x="1065" y="830" width="300" height="60" as="geometry" />
        </mxCell>
        <mxCell id="6JTw6NtXRcEhspprxfO7-31" value="&lt;h4&gt;&lt;span style=&quot;font-weight: normal;&quot;&gt;&lt;u&gt;Forgot Password&lt;/u&gt;&lt;/span&gt;&lt;/h4&gt;" style="text;strokeColor=none;fillColor=none;html=1;fontSize=24;fontStyle=1;verticalAlign=middle;align=center;" vertex="1" parent="6JTw6NtXRcEhspprxfO7-4">
          <mxGeometry x="1290" y="970" width="240" height="40" as="geometry" />
        </mxCell>
        <mxCell id="6JTw6NtXRcEhspprxfO7-10" value="" style="group" vertex="1" connectable="0" parent="1">
          <mxGeometry x="2360" y="190" width="1920" height="1080" as="geometry" />
        </mxCell>
        <mxCell id="6JTw6NtXRcEhspprxfO7-11" value="" style="rounded=0;whiteSpace=wrap;html=1;" vertex="1" parent="6JTw6NtXRcEhspprxfO7-10">
          <mxGeometry width="1920" height="1080" as="geometry" />
        </mxCell>
        <mxCell id="6JTw6NtXRcEhspprxfO7-12" value="&lt;h1&gt;&lt;br&gt;&lt;/h1&gt;" style="rounded=0;whiteSpace=wrap;html=1;" vertex="1" parent="6JTw6NtXRcEhspprxfO7-10">
          <mxGeometry width="850" height="1080" as="geometry" />
        </mxCell>
        <mxCell id="6JTw6NtXRcEhspprxfO7-13" value="&lt;h1&gt;Unity White logo&lt;/h1&gt;" style="rounded=0;whiteSpace=wrap;html=1;" vertex="1" parent="6JTw6NtXRcEhspprxfO7-10">
          <mxGeometry x="20" y="20" width="320" height="80" as="geometry" />
        </mxCell>
        <mxCell id="6JTw6NtXRcEhspprxfO7-14" value="&lt;h1&gt;Slide Title&lt;/h1&gt;" style="rounded=0;whiteSpace=wrap;html=1;" vertex="1" parent="6JTw6NtXRcEhspprxfO7-10">
          <mxGeometry x="265" y="290" width="320" height="80" as="geometry" />
        </mxCell>
        <mxCell id="6JTw6NtXRcEhspprxfO7-15" value="&lt;h1&gt;Slide Text&lt;/h1&gt;" style="rounded=0;whiteSpace=wrap;html=1;" vertex="1" parent="6JTw6NtXRcEhspprxfO7-10">
          <mxGeometry x="120" y="450" width="610" height="300" as="geometry" />
        </mxCell>
        <mxCell id="6JTw6NtXRcEhspprxfO7-16" value="&lt;h1&gt;Start Here&lt;/h1&gt;" style="rounded=1;whiteSpace=wrap;html=1;" vertex="1" parent="6JTw6NtXRcEhspprxfO7-10">
          <mxGeometry x="280" y="920" width="230" height="60" as="geometry" />
        </mxCell>
      </root>
    </mxGraphModel>
  </diagram>
</mxfile>
